<svg width="271" height="41" viewBox="0 0 271 41" fill="none" xmlns="http://www.w3.org/2000/svg">
<path d="M12.7326 33.5V7.31818H23.0621C25.0394 7.31818 26.7269 7.67187 28.1246 8.37926C29.5309 9.07812 30.6005 10.071 31.3335 11.358C32.0749 12.6364 32.4457 14.1406 32.4457 15.8707C32.4457 17.6094 32.0707 19.1051 31.3207 20.358C30.5707 21.6023 29.484 22.5568 28.0607 23.2216C26.646 23.8864 24.9329 24.2188 22.9215 24.2188H16.0053V19.7699H22.0266C23.0835 19.7699 23.9613 19.625 24.6602 19.3352C25.359 19.0455 25.8789 18.6108 26.2198 18.0312C26.5692 17.4517 26.744 16.7315 26.744 15.8707C26.744 15.0014 26.5692 14.2685 26.2198 13.6719C25.8789 13.0753 25.3548 12.6236 24.6474 12.3168C23.9485 12.0014 23.0664 11.8438 22.0011 11.8438H18.2681V33.5H12.7326ZM26.8718 21.5852L33.3789 33.5H27.2681L20.9016 21.5852H26.8718ZM38.2553 33.5V13.8636H43.7013V33.5H38.2553ZM40.9911 11.3324C40.1815 11.3324 39.4869 11.0639 38.9073 10.527C38.3363 9.98153 38.0508 9.32954 38.0508 8.57102C38.0508 7.82102 38.3363 7.17756 38.9073 6.64062C39.4869 6.09517 40.1815 5.82244 40.9911 5.82244C41.8008 5.82244 42.4911 6.09517 43.0621 6.64062C43.6417 7.17756 43.9315 7.82102 43.9315 8.57102C43.9315 9.32954 43.6417 9.98153 43.0621 10.527C42.4911 11.0639 41.8008 11.3324 40.9911 11.3324ZM60.5085 13.8636V17.9545H48.6832V13.8636H60.5085ZM51.3679 9.15909H56.8139V27.4659C56.8139 27.9687 56.8906 28.3608 57.044 28.642C57.1974 28.9148 57.4105 29.1065 57.6832 29.2173C57.9645 29.3281 58.2884 29.3835 58.6548 29.3835C58.9105 29.3835 59.1662 29.3622 59.4219 29.3196C59.6776 29.2685 59.8736 29.2301 60.0099 29.2045L60.8665 33.2571C60.5938 33.3423 60.2102 33.4403 59.7159 33.5511C59.2216 33.6705 58.6207 33.7429 57.9134 33.7685C56.6009 33.8196 55.4503 33.6449 54.4616 33.2443C53.4815 32.8437 52.7188 32.2216 52.1733 31.3778C51.6278 30.5341 51.3594 29.4687 51.3679 28.1818V9.15909ZM65.9538 33.5V30.2528L75.5675 18.3509V18.2102H66.2862V13.8636H82.1257V17.4048L73.1001 29.0128V29.1534H82.4581V33.5H65.9538ZM91.9847 40.8636C91.2944 40.8636 90.6467 40.8082 90.0415 40.6974C89.445 40.5952 88.9506 40.4631 88.5586 40.3011L89.7859 36.2358C90.4251 36.4318 91.0004 36.5384 91.5117 36.5554C92.0316 36.5724 92.479 36.4531 92.854 36.1974C93.2376 35.9418 93.5487 35.5071 93.7873 34.8935L94.1069 34.0625L87.0629 13.8636H92.7901L96.8555 28.2841H97.06L101.164 13.8636H106.929L99.2972 35.6222C98.9308 36.679 98.4322 37.5994 97.8015 38.3835C97.1793 39.1761 96.391 39.7855 95.4364 40.2116C94.4819 40.6463 93.3313 40.8636 91.9847 40.8636Z" fill="#9012BC"/>
<path d="M112.447 33.5V7.31818H129.783V11.8821H117.983V18.1207H128.632V22.6847H117.983V33.5H112.447ZM140.757 33.8707C139.504 33.8707 138.388 33.6534 137.408 33.2188C136.428 32.7756 135.652 32.1236 135.081 31.2628C134.518 30.3935 134.237 29.3111 134.237 28.0156C134.237 26.9247 134.438 26.0085 134.838 25.267C135.239 24.5256 135.784 23.929 136.474 23.4773C137.165 23.0256 137.949 22.6847 138.827 22.4545C139.713 22.2244 140.642 22.0625 141.614 21.9688C142.756 21.8494 143.676 21.7386 144.375 21.6364C145.074 21.5256 145.581 21.3636 145.896 21.1506C146.212 20.9375 146.369 20.6222 146.369 20.2045V20.1278C146.369 19.3182 146.114 18.6918 145.602 18.2486C145.099 17.8054 144.384 17.5838 143.455 17.5838C142.474 17.5838 141.695 17.8011 141.115 18.2358C140.536 18.6619 140.152 19.1989 139.964 19.8466L134.928 19.4375C135.183 18.2443 135.686 17.2131 136.436 16.3438C137.186 15.4659 138.153 14.7926 139.338 14.3239C140.531 13.8466 141.912 13.608 143.48 13.608C144.571 13.608 145.615 13.7358 146.612 13.9915C147.618 14.2472 148.509 14.6435 149.284 15.1804C150.068 15.7173 150.686 16.4077 151.138 17.2514C151.589 18.0866 151.815 19.0881 151.815 20.2557V33.5H146.651V30.777H146.497C146.182 31.3906 145.76 31.9318 145.232 32.4006C144.703 32.8608 144.068 33.223 143.327 33.4872C142.585 33.7429 141.729 33.8707 140.757 33.8707ZM142.317 30.1122C143.118 30.1122 143.825 29.9545 144.439 29.6392C145.053 29.3153 145.534 28.8807 145.884 28.3352C146.233 27.7898 146.408 27.1719 146.408 26.4815V24.3977C146.237 24.5085 146.003 24.6108 145.705 24.7045C145.415 24.7898 145.087 24.8707 144.72 24.9474C144.354 25.0156 143.987 25.0795 143.621 25.1392C143.254 25.1903 142.922 25.2372 142.624 25.2798C141.984 25.3736 141.426 25.5227 140.949 25.7273C140.472 25.9318 140.101 26.2088 139.837 26.5582C139.572 26.8991 139.44 27.3253 139.44 27.8366C139.44 28.5781 139.709 29.1449 140.246 29.5369C140.791 29.9205 141.482 30.1122 142.317 30.1122ZM174.379 19.4631L169.393 19.7699C169.308 19.3437 169.124 18.9602 168.843 18.6193C168.562 18.2699 168.191 17.9929 167.731 17.7884C167.279 17.5753 166.738 17.4688 166.107 17.4688C165.263 17.4688 164.552 17.6477 163.972 18.0057C163.393 18.3551 163.103 18.8239 163.103 19.4119C163.103 19.8807 163.29 20.277 163.665 20.6009C164.04 20.9247 164.684 21.1847 165.596 21.3807L169.15 22.0966C171.059 22.4886 172.482 23.1193 173.42 23.9886C174.357 24.858 174.826 26 174.826 27.4148C174.826 28.7017 174.447 29.831 173.688 30.8026C172.938 31.7741 171.907 32.5327 170.594 33.0781C169.29 33.6151 167.786 33.8835 166.082 33.8835C163.482 33.8835 161.411 33.3423 159.869 32.2599C158.335 31.169 157.435 29.6861 157.171 27.8111L162.528 27.5298C162.69 28.3224 163.082 28.9276 163.704 29.3452C164.326 29.7543 165.123 29.9588 166.094 29.9588C167.049 29.9588 167.816 29.7756 168.396 29.4091C168.984 29.0341 169.282 28.5526 169.29 27.9645C169.282 27.4702 169.073 27.0653 168.664 26.75C168.255 26.4261 167.624 26.179 166.772 26.0085L163.371 25.331C161.454 24.9474 160.026 24.2827 159.089 23.3366C158.16 22.3906 157.695 21.1847 157.695 19.7188C157.695 18.4574 158.036 17.3707 158.718 16.4588C159.408 15.5469 160.376 14.8438 161.62 14.3494C162.873 13.8551 164.339 13.608 166.018 13.608C168.498 13.608 170.45 14.1321 171.873 15.1804C173.305 16.2287 174.14 17.6562 174.379 19.4631ZM185.701 22.1477V33.5H180.255V7.31818H185.548V17.3281H185.778C186.221 16.169 186.937 15.2614 187.926 14.6051C188.914 13.9403 190.154 13.608 191.646 13.608C193.01 13.608 194.199 13.9062 195.213 14.5028C196.235 15.0909 197.028 15.9389 197.591 17.0469C198.162 18.1463 198.443 19.4631 198.434 20.9972V33.5H192.988V21.9688C192.997 20.7585 192.69 19.8168 192.068 19.1435C191.454 18.4702 190.593 18.1335 189.485 18.1335C188.744 18.1335 188.088 18.2912 187.517 18.6065C186.954 18.9219 186.511 19.3821 186.187 19.9872C185.872 20.5838 185.71 21.304 185.701 22.1477ZM204.72 33.5V13.8636H210.166V33.5H204.72ZM207.456 11.3324C206.646 11.3324 205.952 11.0639 205.372 10.527C204.801 9.98153 204.516 9.32954 204.516 8.57102C204.516 7.82102 204.801 7.17756 205.372 6.64062C205.952 6.09517 206.646 5.82244 207.456 5.82244C208.266 5.82244 208.956 6.09517 209.527 6.64062C210.107 7.17756 210.396 7.82102 210.396 8.57102C210.396 9.32954 210.107 9.98153 209.527 10.527C208.956 11.0639 208.266 11.3324 207.456 11.3324ZM225.401 33.8835C223.415 33.8835 221.698 33.4616 220.249 32.6179C218.809 31.7656 217.696 30.581 216.912 29.0639C216.128 27.5384 215.736 25.7699 215.736 23.7585C215.736 21.7301 216.128 19.9574 216.912 18.4403C217.696 16.9148 218.809 15.7301 220.249 14.8864C221.698 14.0341 223.415 13.608 225.401 13.608C227.387 13.608 229.1 14.0341 230.54 14.8864C231.989 15.7301 233.105 16.9148 233.89 18.4403C234.674 19.9574 235.066 21.7301 235.066 23.7585C235.066 25.7699 234.674 27.5384 233.89 29.0639C233.105 30.581 231.989 31.7656 230.54 32.6179C229.1 33.4616 227.387 33.8835 225.401 33.8835ZM225.426 29.6648C226.33 29.6648 227.084 29.4091 227.689 28.8977C228.294 28.3778 228.75 27.6705 229.057 26.7756C229.373 25.8807 229.53 24.8622 229.53 23.7202C229.53 22.5781 229.373 21.5597 229.057 20.6648C228.75 19.7699 228.294 19.0625 227.689 18.5426C227.084 18.0227 226.33 17.7628 225.426 17.7628C224.515 17.7628 223.748 18.0227 223.125 18.5426C222.512 19.0625 222.047 19.7699 221.732 20.6648C221.425 21.5597 221.272 22.5781 221.272 23.7202C221.272 24.8622 221.425 25.8807 221.732 26.7756C222.047 27.6705 222.512 28.3778 223.125 28.8977C223.748 29.4091 224.515 29.6648 225.426 29.6648ZM246.053 22.1477V33.5H240.607V13.8636H245.797V17.3281H246.027C246.462 16.1861 247.191 15.2827 248.213 14.6179C249.236 13.9446 250.476 13.608 251.934 13.608C253.297 13.608 254.486 13.9062 255.5 14.5028C256.515 15.0994 257.303 15.9517 257.865 17.0597C258.428 18.1591 258.709 19.4716 258.709 20.9972V33.5H253.263V21.9688C253.272 20.767 252.965 19.8295 252.343 19.1562C251.721 18.4744 250.864 18.1335 249.773 18.1335C249.04 18.1335 248.392 18.2912 247.83 18.6065C247.276 18.9219 246.841 19.3821 246.526 19.9872C246.219 20.5838 246.061 21.304 246.053 22.1477Z" fill="#9012BC"/>
</svg>
