<svg width="296" height="44" viewBox="0 0 296 44" fill="none" xmlns="http://www.w3.org/2000/svg">
<path d="M12.5362 35.5V6.40909H24.0135C26.2105 6.40909 28.0855 6.80208 29.6385 7.58807C31.201 8.36458 32.3894 9.4678 33.2038 10.8977C34.0277 12.3182 34.4396 13.9896 34.4396 15.9119C34.4396 17.8437 34.023 19.5057 33.1896 20.8977C32.3563 22.2803 31.1489 23.3409 29.5675 24.0795C27.9955 24.8182 26.0921 25.1875 23.8572 25.1875H16.1726V20.2443H22.8629C24.0372 20.2443 25.0125 20.0833 25.7891 19.7614C26.5656 19.4394 27.1432 18.9564 27.522 18.3125C27.9103 17.6686 28.1044 16.8684 28.1044 15.9119C28.1044 14.946 27.9103 14.1316 27.522 13.4688C27.1432 12.8059 26.5608 12.304 25.7749 11.9631C24.9983 11.6127 24.0182 11.4375 22.8345 11.4375H18.6868V35.5H12.5362ZM28.2464 22.2614L35.4766 35.5H28.6868L21.6129 22.2614H28.2464ZM40.6726 35.5V13.6818H46.7237V35.5H40.6726ZM43.7124 10.8693C42.8127 10.8693 42.041 10.571 41.397 9.97443C40.7625 9.36837 40.4453 8.64394 40.4453 7.80114C40.4453 6.9678 40.7625 6.25284 41.397 5.65625C42.041 5.05019 42.8127 4.74716 43.7124 4.74716C44.612 4.74716 45.379 5.05019 46.0135 5.65625C46.6574 6.25284 46.9794 6.9678 46.9794 7.80114C46.9794 8.64394 46.6574 9.36837 46.0135 9.97443C45.379 10.571 44.612 10.8693 43.7124 10.8693ZM65.1761 13.6818V18.2273H52.0369V13.6818H65.1761ZM55.0199 8.45455H61.071V28.7955C61.071 29.3542 61.1563 29.7898 61.3267 30.1023C61.4972 30.4053 61.7339 30.6184 62.0369 30.7415C62.3494 30.8646 62.7093 30.9261 63.1165 30.9261C63.4006 30.9261 63.6847 30.9025 63.9688 30.8551C64.2528 30.7983 64.4706 30.7557 64.6222 30.7273L65.5739 35.2301C65.2708 35.3248 64.8447 35.4337 64.2955 35.5568C63.7462 35.6894 63.0786 35.7699 62.2926 35.7983C60.8343 35.8551 59.5559 35.661 58.4574 35.2159C57.3684 34.7708 56.5208 34.0795 55.9148 33.142C55.3087 32.2045 55.0104 31.0208 55.0199 29.5909V8.45455ZM71.0043 35.5V31.892L81.6861 18.6676V18.5114H71.3736V13.6818H88.973V17.6165L78.9446 30.5142V30.6705H89.3423V35.5H71.0043ZM99.7053 43.6818C98.9382 43.6818 98.2185 43.6203 97.5462 43.4972C96.8833 43.3835 96.334 43.2367 95.8984 43.0568L97.2621 38.5398C97.9723 38.7576 98.6115 38.8759 99.1797 38.8949C99.7573 38.9138 100.254 38.7813 100.671 38.4972C101.097 38.2131 101.443 37.7301 101.708 37.0483L102.063 36.125L94.2365 13.6818H100.6L105.117 29.7045H105.344L109.904 13.6818H116.31L107.83 37.858C107.423 39.0322 106.869 40.0549 106.168 40.9261C105.477 41.8068 104.601 42.4839 103.54 42.9574C102.48 43.4403 101.201 43.6818 99.7053 43.6818Z" fill="#9012BC"/>
<path d="M121.997 35.5V6.40909H141.259V11.4801H128.148V18.4119H139.98V23.483H128.148V35.5H121.997ZM153.23 35.9119C151.838 35.9119 150.598 35.6705 149.509 35.1875C148.42 34.6951 147.558 33.9706 146.923 33.0142C146.298 32.0483 145.986 30.8456 145.986 29.4062C145.986 28.1941 146.208 27.1761 146.653 26.3523C147.098 25.5284 147.705 24.8655 148.472 24.3636C149.239 23.8617 150.11 23.483 151.085 23.2273C152.07 22.9716 153.102 22.7917 154.182 22.6875C155.451 22.5549 156.473 22.4318 157.25 22.3182C158.027 22.1951 158.59 22.0152 158.94 21.7784C159.291 21.5417 159.466 21.1913 159.466 20.7273V20.642C159.466 19.7424 159.182 19.0464 158.614 18.554C158.055 18.0616 157.259 17.8153 156.227 17.8153C155.138 17.8153 154.272 18.0568 153.628 18.5398C152.984 19.0133 152.558 19.6098 152.349 20.3295L146.753 19.875C147.037 18.5492 147.596 17.4034 148.429 16.4375C149.262 15.4621 150.337 14.714 151.653 14.1932C152.979 13.6629 154.513 13.3977 156.256 13.3977C157.468 13.3977 158.628 13.5398 159.736 13.8239C160.853 14.108 161.843 14.5483 162.705 15.1449C163.576 15.7415 164.262 16.5085 164.764 17.446C165.266 18.3741 165.517 19.4867 165.517 20.7841V35.5H159.778V32.4744H159.608C159.258 33.1562 158.789 33.7576 158.202 34.2784C157.615 34.7898 156.909 35.1922 156.085 35.4858C155.261 35.7699 154.31 35.9119 153.23 35.9119ZM154.963 31.7358C155.853 31.7358 156.639 31.5606 157.321 31.2102C158.003 30.8504 158.538 30.3674 158.926 29.7614C159.314 29.1553 159.509 28.4687 159.509 27.7017V25.3864C159.319 25.5095 159.059 25.6231 158.727 25.7273C158.405 25.822 158.041 25.9119 157.634 25.9972C157.226 26.0729 156.819 26.1439 156.412 26.2102C156.005 26.267 155.635 26.3191 155.304 26.3665C154.594 26.4706 153.973 26.6364 153.443 26.8636C152.913 27.0909 152.501 27.3987 152.207 27.7869C151.914 28.1657 151.767 28.6392 151.767 29.2074C151.767 30.0312 152.065 30.661 152.662 31.0966C153.268 31.5227 154.035 31.7358 154.963 31.7358ZM190.365 19.9034L184.825 20.2443C184.731 19.7708 184.527 19.3447 184.214 18.9659C183.902 18.5777 183.49 18.2699 182.979 18.0426C182.477 17.8059 181.875 17.6875 181.175 17.6875C180.237 17.6875 179.446 17.8864 178.803 18.2841C178.159 18.6723 177.837 19.1932 177.837 19.8466C177.837 20.3674 178.045 20.8078 178.462 21.1676C178.878 21.5275 179.593 21.8163 180.607 22.0341L184.555 22.8295C186.677 23.2652 188.258 23.9659 189.3 24.9318C190.341 25.8977 190.862 27.1667 190.862 28.7386C190.862 30.1686 190.441 31.4233 189.598 32.5028C188.765 33.5824 187.619 34.4252 186.161 35.0312C184.712 35.6278 183.04 35.9261 181.146 35.9261C178.258 35.9261 175.957 35.3248 174.243 34.1222C172.538 32.91 171.539 31.2623 171.246 29.179L177.197 28.8665C177.377 29.7472 177.813 30.4195 178.504 30.8835C179.196 31.3381 180.081 31.5653 181.161 31.5653C182.221 31.5653 183.073 31.3617 183.717 30.9545C184.371 30.5379 184.702 30.0028 184.712 29.3494C184.702 28.8002 184.47 28.3504 184.016 28C183.561 27.6402 182.86 27.3655 181.913 27.1761L178.135 26.4233C176.004 25.9972 174.418 25.2585 173.376 24.2074C172.344 23.1562 171.828 21.8163 171.828 20.1875C171.828 18.786 172.207 17.5786 172.964 16.5653C173.732 15.5521 174.806 14.7708 176.189 14.2216C177.581 13.6723 179.21 13.3977 181.075 13.3977C183.831 13.3977 186 13.9801 187.581 15.1449C189.172 16.3097 190.1 17.8958 190.365 19.9034ZM202.724 22.8864V35.5H196.673V6.40909H202.553V17.5312H202.809C203.301 16.2434 204.097 15.2348 205.195 14.5057C206.294 13.767 207.672 13.3977 209.329 13.3977C210.844 13.3977 212.165 13.7292 213.292 14.392C214.428 15.0455 215.309 15.9877 215.934 17.2188C216.568 18.4403 216.881 19.9034 216.871 21.608V35.5H210.82V22.6875C210.83 21.3428 210.489 20.2964 209.798 19.5483C209.116 18.8002 208.159 18.4261 206.928 18.4261C206.104 18.4261 205.375 18.6013 204.741 18.9517C204.116 19.3021 203.623 19.8134 203.263 20.4858C202.913 21.1487 202.733 21.9489 202.724 22.8864ZM223.634 35.5V13.6818H229.685V35.5H223.634ZM226.673 10.8693C225.774 10.8693 225.002 10.571 224.358 9.97443C223.723 9.36837 223.406 8.64394 223.406 7.80114C223.406 6.9678 223.723 6.25284 224.358 5.65625C225.002 5.05019 225.774 4.74716 226.673 4.74716C227.573 4.74716 228.34 5.05019 228.974 5.65625C229.618 6.25284 229.94 6.9678 229.94 7.80114C229.94 8.64394 229.618 9.36837 228.974 9.97443C228.34 10.571 227.573 10.8693 226.673 10.8693ZM246.39 35.9261C244.183 35.9261 242.275 35.4574 240.665 34.5199C239.065 33.5729 237.829 32.2566 236.958 30.571C236.087 28.8759 235.651 26.911 235.651 24.6761C235.651 22.4223 236.087 20.4527 236.958 18.767C237.829 17.072 239.065 15.7557 240.665 14.8182C242.275 13.8712 244.183 13.3977 246.39 13.3977C248.596 13.3977 250.5 13.8712 252.1 14.8182C253.71 15.7557 254.951 17.072 255.822 18.767C256.693 20.4527 257.129 22.4223 257.129 24.6761C257.129 26.911 256.693 28.8759 255.822 30.571C254.951 32.2566 253.71 33.5729 252.1 34.5199C250.5 35.4574 248.596 35.9261 246.39 35.9261ZM246.418 31.2386C247.422 31.2386 248.26 30.9545 248.933 30.3864C249.605 29.8087 250.112 29.0227 250.452 28.0284C250.803 27.0341 250.978 25.9025 250.978 24.6335C250.978 23.3646 250.803 22.233 250.452 21.2386C250.112 20.2443 249.605 19.4583 248.933 18.8807C248.26 18.303 247.422 18.0142 246.418 18.0142C245.405 18.0142 244.553 18.303 243.862 18.8807C243.18 19.4583 242.664 20.2443 242.313 21.2386C241.972 22.233 241.802 23.3646 241.802 24.6335C241.802 25.9025 241.972 27.0341 242.313 28.0284C242.664 29.0227 243.18 29.8087 243.862 30.3864C244.553 30.9545 245.405 31.2386 246.418 31.2386ZM269.114 22.8864V35.5H263.063V13.6818H268.83V17.5312H269.086C269.569 16.2623 270.379 15.2585 271.515 14.5199C272.651 13.7718 274.029 13.3977 275.648 13.3977C277.164 13.3977 278.485 13.7292 279.612 14.392C280.738 15.0549 281.614 16.0019 282.239 17.233C282.864 18.4545 283.177 19.9129 283.177 21.608V35.5H277.126V22.6875C277.135 21.3523 276.794 20.3106 276.103 19.5625C275.412 18.8049 274.46 18.4261 273.248 18.4261C272.433 18.4261 271.714 18.6013 271.089 18.9517C270.473 19.3021 269.99 19.8134 269.64 20.4858C269.299 21.1487 269.124 21.9489 269.114 22.8864Z" fill="#9012BC"/>
</svg>
